PathFileType	4	(X/Y/Z)	/Users/itak/Documents/Research/Walk-IL/dataset/trc/00498_00183.trc
DataRate	CameraRate	NumFrames	NumMarkers	Units	OrigDataRate	OrigDataStartFrame	OrigNumFrames
100.000000	100.000000	4	56	mm	100.000000	592	677
Frame#	Time	RPSI			LPSI			L3			STRN			T10			C7			CLAV			RBAK			LBAK			LSHO			LUPA			LAEL			LAOL			LWTS			LWPS			LFRA			LIFD			LHPS			LHTS			RSHO			RUPA			RAEL			RAOL			RWTS			RWPS			RFRA			RIFD			RHTS			RHPS			RBHD			LFHD			RFHD			LBHD			LHIP			RHIP			RASI			LASI			LKNE			LTHI			LANK			LTIP			LTOE			LMT1			LMT5			LHEE			RKNE			RTHI			RANK			RTIP			RTOE			RMT1			RMT5			RHEE			*53			*54			*55			
		X1	Y1	Z1	X2	Y2	Z2	X3	Y3	Z3	X4	Y4	Z4	X5	Y5	Z5	X6	Y6	Z6	X7	Y7	Z7	X8	Y8	Z8	X9	Y9	Z9	X10	Y10	Z10	X11	Y11	Z11	X12	Y12	Z12	X13	Y13	Z13	X14	Y14	Z14	X15	Y15	Z15	X16	Y16	Z16	X17	Y17	Z17	X18	Y18	Z18	X19	Y19	Z19	X20	Y20	Z20	X21	Y21	Z21	X22	Y22	Z22	X23	Y23	Z23	X24	Y24	Z24	X25	Y25	Z25	X26	Y26	Z26	X27	Y27	Z27	X28	Y28	Z28	X29	Y29	Z29	X30	Y30	Z30	X31	Y31	Z31	X32	Y32	Z32	X33	Y33	Z33	X34	Y34	Z34	X35	Y35	Z35	X36	Y36	Z36	X37	Y37	Z37	X38	Y38	Z38	X39	Y39	Z39	X40	Y40	Z40	X41	Y41	Z41	X42	Y42	Z42	X43	Y43	Z43	X44	Y44	Z44	X45	Y45	Z45	X46	Y46	Z46	X47	Y47	Z47	X48	Y48	Z48	X49	Y49	Z49	X50	Y50	Z50	X51	Y51	Z51	X52	Y52	Z52	X53	Y53	Z53	X54	Y54	Z54	X55	Y55	Z55	X56	Y56	Z56	

593	5.92	461.9677124023438	968.1385498046875	340.1142578125	529.0805053710938	964.4588623046875	235.4750366210938	490.3294067382812	1032.674438476562	278.8474731445312	677.6014404296875	1200.312622070312	369.6851196289062	474.3331909179688	1132.119018554688	266.9378356933594	503.2297058105469	1365.575073242188	278.84375	643.1560668945312	1293.552490234375	349.492431640625	425.2153930664062	1243.163818359375	338.6056518554688	522.702392578125	1309.546752929688	191.0643005371094	641.0316772460938	1357.065185546875	167.7451019287109	664.721923828125	1230.468139648438	111.3314666748047	692.1048583984375	1020.865844726562	97.45025634765625	597.9877319335938	1009.332397460938	119.1997833251953	764.0352783203125	844.0515747070312	182.6794586181641	716.7105712890625	797.3510131835938	115.9900360107422	712.2212524414062	945.059326171875	107.8269653320312	777.994384765625	689.8165893554688	210.1711578369141	741.1199340820312	747.0736694335938	136.2902374267578	787.5189819335938	767.5119018554688	177.4463653564453	486.983642578125	1362.84375	438.2597351074219	451.5632019042969	1294.740844726562	486.2622680664062	463.0094604492188	1028.615356445312	543.255126953125	426.9760131835938	1007.02978515625	491.8832702636719	585.3333129882812	834.7744140625	550.7423706054688	502.3783569335938	807.811767578125	574.5686645507812	470.2867431640625	974.7208862304688	553.8342895507812	601.8716430664062	677.096923828125	557.9275512695312	601.3090209960938	743.7935791015625	581.7260131835938	530.420166015625	735.699462890625	584.4195556640625	475.6479187011719	1505.247802734375	346.0339660644531	645.0265502929688	1600.015625	297.2850952148438	569.24609375	1592.377685546875	398.7079162597656	561.4011840820312	1507.289184570312	210.0966186523438	681.6337890625	886.219970703125	178.8888702392578	486.5896606445312	872.4244995117188	503.9024658203125	606.4486083984375	915.5455932617188	498.1762084960938	730.0919189453125	921.5747680664062	289.6989135742188	659.8089599609375	464.469482421875	230.9019165039062	691.055419921875	621.3165283203125	215.7255401611328	552.2666625976562	44.33717346191406	205.0581817626953	626.5355224609375	315.5600891113281	216.4687957763672	694.4767456054688	33.0221061706543	356.5771179199219	610.3719482421875	39.10271453857422	344.936767578125	651.2788696289062	37.00014495849609	251.0630645751953	482.0514831542969	43.62541198730469	236.7058258056641	521.193359375	482.8555908203125	497.3538513183594	509.5396423339844	743.060546875	525.097900390625	448.0189819335938	49.06510925292969	459.4114990234375	526.3024291992188	337.0478820800781	489.8576965332031	648.2742919921875	35.92073440551758	505.8990783691406	602.8014526367188	40.8349723815918	443.8157958984375	544.2850341796875	42.6536979675293	520.68115234375	419.9507446289062	41.00122451782227	394.6563110351562	nan	nan	nan	nan	nan	nan	nan	nan	nan	
594	5.93	463.0724792480469	967.9551391601562	341.8504943847656	530.2261352539062	964.299072265625	237.1914215087891	490.9759826660156	1032.051025390625	280.4607543945312	678.4005737304688	1200.20263671875	371.1423645019531	474.75390625	1131.817016601562	268.6514892578125	503.6754455566406	1365.224609375	280.3839721679688	643.8626098632812	1293.41064453125	350.8546142578125	425.8888854980469	1242.859619140625	340.4627380371094	523.0626831054688	1309.0869140625	192.6250457763672	641.3258666992188	1356.599243164062	168.9648284912109	664.722900390625	1229.896240234375	112.6484832763672	691.7488403320312	1020.23095703125	98.91463470458984	597.7119140625	1008.871643066406	121.1342849731445	763.823974609375	843.3823852539062	183.9151000976562	716.1519165039062	796.7282104492188	117.528694152832	711.7507934570312	944.384521484375	109.2613983154297	777.8284912109375	689.2088012695312	211.4647521972656	740.5155029296875	746.3934936523438	137.7638092041016	787.2496337890625	766.845458984375	178.6006317138672	487.80712890625	1362.728759765625	439.81201171875	452.5846862792969	1294.633056640625	487.9947814941406	464.8593139648438	1028.587036132812	545.3361206054688	428.4605102539062	1006.860595703125	494.2539978027344	587.3363647460938	834.9225463867188	552.1521606445312	504.6946716308594	807.9300537109375	576.8387451171875	472.2279968261719	974.718505859375	555.9481201171875	604.1702880859375	677.2703857421875	559.786865234375	603.6798706054688	744.0408935546875	583.3125610351562	532.930908203125	735.9267578125	586.6134643554688	476.330078125	1505.14990234375	347.2384338378906	645.7451782226562	1599.670166015625	298.1809692382812	570.0704956054688	1592.224853515625	399.7185363769531	561.904052734375	1507.012817382812	211.2115936279297	683.9111328125	886.275634765625	181.1641082763672	487.6150512695312	872.174072265625	505.5702819824219	607.5472412109375	915.27880859375	500.0076599121094	731.1830444335938	921.3972778320312	291.541015625	660.1123046875	464.3663940429688	231.522216796875	691.8460083007812	621.1691284179688	216.900634765625	552.34033203125	44.40821838378906	205.1206359863281	626.5320434570312	315.6741638183594	216.7328491210938	694.4755249023438	33.02174758911133	356.6255187988281	610.318115234375	39.06159973144531	344.9766235351562	651.2383422851562	37.05546569824219	251.1138000488281	482.0630493164062	43.69689559936523	236.7348785400391	520.3451538085938	482.3985900878906	498.5783386230469	510.1343078613281	742.8489990234375	526.6731567382812	447.9061889648438	48.65608215332031	459.3841247558594	525.29345703125	336.7540283203125	490.1719665527344	648.253173828125	35.87490081787109	505.8985900878906	602.7080078125	40.7906379699707	443.8186645507812	544.1934814453125	42.47734451293945	520.6858520507812	419.8809204101562	40.45835113525391	394.6370544433594	nan	nan	nan	nan	nan	nan	nan	nan	nan	
595	5.94	464.0947570800781	967.7778930664062	343.5392456054688	531.323486328125	964.1282348632812	238.8450317382812	491.6059265136719	1031.436767578125	281.9993286132812	679.16162109375	1200.08447265625	372.5993957519531	475.1285400390625	1131.536743164062	270.2990112304688	504.125	1364.893676757812	281.9042358398438	644.5416259765625	1293.268676757812	352.2228088378906	426.5365600585938	1242.586669921875	342.2599487304688	523.4514770507812	1308.656982421875	194.1561889648438	641.6671142578125	1356.149169921875	170.2006988525391	664.7869873046875	1229.344970703125	113.9922027587891	691.4277954101562	1019.615966796875	100.4223861694336	597.4561157226562	1008.442687988281	123.0759811401367	763.5433349609375	842.6614990234375	185.2214508056641	715.5155639648438	796.1097412109375	119.0817260742188	711.2841186523438	943.7090454101562	110.7482376098633	777.4586791992188	688.525146484375	212.7522888183594	739.8114013671875	745.6966552734375	139.2482757568359	786.8651123046875	766.1054077148438	179.7935333251953	488.5950622558594	1362.621948242188	441.3289794921875	453.5348815917969	1294.540283203125	489.6760864257812	466.5768127441406	1028.565307617188	547.3544311523438	429.7955627441406	1006.718444824219	496.5601501464844	589.2522583007812	835.10205078125	553.53271484375	506.9114074707031	808.0626831054688	579.0361938476562	474.0547485351562	974.7311401367188	557.9904174804688	606.4119262695312	677.4841918945312	561.6061401367188	605.9685668945312	744.326416015625	584.858154296875	535.3677978515625	736.172119140625	588.7518920898438	476.9742431640625	1505.040161132812	348.4584045410156	646.4375	1599.34765625	299.0881652832031	570.8411865234375	1592.07275390625	400.7519226074219	562.3911743164062	1506.7294921875	212.3623199462891	686.5192260742188	886.3646850585938	183.5675048828125	488.596435546875	871.943359375	507.1775512695312	608.5709838867188	915.0322265625	501.7876586914062	732.2153930664062	921.2322998046875	293.3366088867188	660.408203125	464.2886657714844	232.2320861816406	692.6361694335938	621.0079956054688	218.1521148681641	552.4136962890625	44.48532104492188	205.1881103515625	626.5490112304688	315.775146484375	217.0470123291016	694.4810791015625	33.02073669433594	356.6786193847656	610.2760620117188	39.02339172363281	345.0258178710938	651.1940307617188	37.11297988891602	251.1734924316406	482.0640869140625	43.77058792114258	236.7756958007812	519.4911499023438	481.9749755859375	499.7337951660156	510.7159423828125	742.6448364257812	528.2026977539062	447.8070068359375	48.29063415527344	459.3484802246094	524.2789306640625	336.512451171875	490.4865112304688	648.23095703125	35.82985687255859	505.89697265625	602.6275634765625	40.75505828857422	443.8204650878906	544.1006469726562	42.32303237915039	520.6866455078125	419.8190612792969	39.9769172668457	394.6055603027344	nan	nan	nan	nan	nan	nan	nan	nan	nan	
596	5.95	465.0418701171875	967.6153564453125	345.1851196289062	532.368408203125	963.9515380859375	240.439697265625	492.2190246582031	1030.841064453125	283.4771423339844	679.8893432617188	1199.963012695312	374.0509033203125	475.4671325683594	1131.272827148438	271.8866271972656	504.5809326171875	1364.583862304688	283.3986511230469	645.1976928710938	1293.126708984375	353.59130859375	427.162353515625	1242.3388671875	343.9962158203125	523.8614501953125	1308.255615234375	195.6568298339844	642.0453491210938	1355.716796875	171.4465789794922	664.9097900390625	1228.814575195312	115.3574295043945	691.1436157226562	1019.021484375	101.9685211181641	597.2312622070312	1008.043762207031	125.0199813842773	763.1971435546875	841.8875732421875	186.6027069091797	714.8067626953125	795.4906005859375	120.6496505737305	710.8301391601562	943.0310668945312	112.2860336303711	776.8762817382812	687.7600708007812	214.0473785400391	739.0153198242188	744.9810180664062	140.7485656738281	786.357421875	765.288818359375	181.0341491699219	489.3479309082031	1362.521850585938	442.810791015625	454.41650390625	1294.46044921875	491.3065795898438	468.1483459472656	1028.548461914062	549.3049926757812	430.9842529296875	1006.604797363281	498.7887268066406	591.0778198242188	835.3087768554688	554.893798828125	509.0180969238281	808.202392578125	581.1488647460938	475.7560729980469	974.7552490234375	559.9555053710938	608.593505859375	677.7377319335938	563.3744506835938	608.1678466796875	744.6444702148438	586.3643798828125	537.7139282226562	736.4263305664062	590.8176879882812	477.580810546875	1504.922973632812	349.6921691894531	647.1016845703125	1599.045288085938	300.0108032226562	571.563232421875	1591.922973632812	401.8065185546875	562.8642578125	1506.442138671875	213.5441589355469	689.1886596679688	886.4562377929688	185.9738006591797	489.535400390625	871.7308959960938	508.7301635742188	609.5319213867188	914.8005981445312	503.5118408203125	733.1914672851562	921.078857421875	295.0758972167969	660.6962890625	464.2319641113281	233.0173187255859	693.419189453125	620.8330688476562	219.4624328613281	552.4824829101562	44.56705856323242	205.2596893310547	626.5831909179688	315.8621215820312	217.4032592773438	694.4915161132812	33.01728057861328	356.7357788085938	610.247314453125	38.9893684387207	345.08349609375	651.1488647460938	37.17243576049805	251.2413177490234	482.0533142089844	43.84292602539062	236.8271636962891	518.6278076171875	481.5952758789062	500.7991333007812	511.2645874023438	742.4470825195312	529.692138671875	447.7216186523438	47.97020721435547	459.3073120117188	523.2731323242188	336.3165283203125	490.79931640625	648.2111206054688	35.78805160522461	505.894775390625	602.5606079101562	40.72617721557617	443.8214416503906	544.0122680664062	42.19207763671875	520.6821899414062	419.7683715820312	39.55529022216797	394.5600280761719	nan	nan	nan	nan	nan	nan	nan	nan	nan	
